<svg xmlns="http://www.w3.org/2000/svg" viewBox="0 0 1200 630" width="1200" height="630" role="img" aria-label="Dealix social card">
  <defs>
    <linearGradient id="dlx-bg" x1="0" x2="1" y1="0" y2="1">
      <stop offset="0%"   stop-color="#0B1220"/>
      <stop offset="100%" stop-color="#0F1726"/>
    </linearGradient>
    <radialGradient id="dlx-glow" cx="80%" cy="20%" r="55%">
      <stop offset="0%"   stop-color="#00D1A1" stop-opacity="0.35"/>
      <stop offset="100%" stop-color="#00D1A1" stop-opacity="0"/>
    </radialGradient>
  </defs>
  <rect width="1200" height="630" fill="url(#dlx-bg)"/>
  <rect width="1200" height="630" fill="url(#dlx-glow)"/>
  <g transform="translate(80, 80)">
    <rect x="0" y="0" width="100" height="100" rx="22" fill="#0B1220" stroke="#1B2740" stroke-width="2"/>
    <path d="M20 24h28a26 26 0 0 1 26 26v0a26 26 0 0 1-26 26H20V24z" fill="none" stroke="#B2BBC6" stroke-width="4"/>
    <rect x="28" y="62" width="6"  height="14" fill="#00D1A1"/>
    <rect x="40" y="52" width="6"  height="24" fill="#00D1A1"/>
    <rect x="52" y="42" width="6"  height="34" fill="#00D1A1"/>
    <path d="M22 36 L70 18 L76 24 L66 26" fill="none" stroke="#00D1A1" stroke-width="4" stroke-linecap="round" stroke-linejoin="round"/>
  </g>
  <text x="80" y="320" fill="#FFFFFF" font-family="Inter, sans-serif" font-weight="800" font-size="92" letter-spacing="4">DEALIX</text>
  <text x="80" y="380" fill="#00D1A1" font-family="Inter, sans-serif" font-weight="600" font-size="34" letter-spacing="2">Intelligent Deals. Real Growth.</text>
  <text x="80" y="430" fill="#B2BBC6" font-family="Inter, sans-serif" font-weight="500" font-size="22">Saudi B2B Revenue Operating System</text>
  <g transform="translate(80, 510)">
    <rect x="0"   y="0" width="170" height="40" rx="20" fill="rgba(0,209,161,0.10)" stroke="rgba(0,209,161,0.45)"/>
    <text x="85"  y="26" fill="#00D1A1" font-family="Inter, sans-serif" font-weight="600" font-size="14" text-anchor="middle">Built on Trust</text>
    <rect x="190" y="0" width="190" height="40" rx="20" fill="rgba(0,209,161,0.10)" stroke="rgba(0,209,161,0.45)"/>
    <text x="285" y="26" fill="#00D1A1" font-family="Inter, sans-serif" font-weight="600" font-size="14" text-anchor="middle">Driven by Growth</text>
    <rect x="400" y="0" width="190" height="40" rx="20" fill="rgba(0,209,161,0.10)" stroke="rgba(0,209,161,0.45)"/>
    <text x="495" y="26" fill="#00D1A1" font-family="Inter, sans-serif" font-weight="600" font-size="14" text-anchor="middle">Closing Deals</text>
  </g>
</svg>
