<svg xmlns="http://www.w3.org/2000/svg" viewBox="0 0 720 180" role="img" aria-label="Dealix — Intelligent Deals. Real Growth.">
  <defs>
    <linearGradient id="g" x1="0" y1="0" x2="1" y2="1">
      <stop offset="0%" stop-color="#00D1A1"/>
      <stop offset="100%" stop-color="#5AC8FA"/>
    </linearGradient>
  </defs>
  <rect width="720" height="180" fill="#0B1220"/>
  <g transform="translate(40,40) scale(2)">
    <path d="M10 8 H26 C40 8 48 17 48 28 C48 39 40 48 26 48 H10 Z M18 16 V40 H26 C34 40 40 35 40 28 C40 21 34 16 26 16 Z" fill="#FFFFFF"/>
    <path d="M14 42 L30 26 L38 32 L48 18" stroke="url(#g)" stroke-width="3.2" stroke-linecap="round" stroke-linejoin="round" fill="none"/>
    <polygon points="46,14 50,14 50,18" fill="#00D1A1"/>
    <rect x="14" y="46" width="4"  height="2" rx="1" fill="#00D1A1" opacity="0.55"/>
    <rect x="22" y="44" width="4"  height="4" rx="1" fill="#00D1A1" opacity="0.75"/>
    <rect x="30" y="42" width="4"  height="6" rx="1" fill="#00D1A1"/>
  </g>
  <text x="180" y="92" font-family="Inter Tight, 'IBM Plex Sans Arabic', system-ui, sans-serif" font-weight="800" font-size="64" fill="#FFFFFF" letter-spacing="6">DEALIX</text>
  <text x="182" y="130" font-family="Inter, 'IBM Plex Sans Arabic', system-ui, sans-serif" font-weight="500" font-size="16" fill="#B2BBC6" letter-spacing="6">INTELLIGENT DEALS. REAL GROWTH.</text>
</svg>
