<svg xmlns="http://www.w3.org/2000/svg" viewBox="0 0 1200 630" role="img" aria-label="Dealix OG default">
  <defs>
    <linearGradient id="bg" x1="0" y1="0" x2="1" y2="1">
      <stop offset="0%" stop-color="#0B1220"/>
      <stop offset="100%" stop-color="#162038"/>
    </linearGradient>
  </defs>
  <rect width="1200" height="630" fill="url(#bg)"/>
  <g transform="translate(80,80) scale(2.5)">
    <path d="M10 8 H26 C40 8 48 17 48 28 C48 39 40 48 26 48 H10 Z M18 16 V40 H26 C34 40 40 35 40 28 C40 21 34 16 26 16 Z" fill="#FFFFFF"/>
    <path d="M14 42 L30 26 L38 32 L48 18" stroke="#00D1A1" stroke-width="3.2" stroke-linecap="round" stroke-linejoin="round" fill="none"/>
    <polygon points="46,14 50,14 50,18" fill="#00D1A1"/>
  </g>
  <text x="80" y="380" font-family="Inter Tight, 'IBM Plex Sans Arabic', system-ui, sans-serif" font-weight="800" font-size="80" fill="#FFFFFF" letter-spacing="-1">Intelligent Deals.</text>
  <text x="80" y="470" font-family="Inter Tight, 'IBM Plex Sans Arabic', system-ui, sans-serif" font-weight="800" font-size="80" fill="#00D1A1" letter-spacing="-1">Real Growth.</text>
  <text x="80" y="550" font-family="Inter, 'IBM Plex Sans Arabic', system-ui, sans-serif" font-weight="500" font-size="24" fill="#B2BBC6">Saudi B2B Revenue Operating System · Founder-approved · Trust-gated</text>
</svg>
